<svg xmlns="http://www.w3.org/2000/svg" viewBox="0 0 75 75" version="1.0"><defs><clipPath id="a"><path d="M 10.589844 1.921875 L 64.589844 1.921875 L 64.589844 73.144531 L 10.589844 73.144531 Z M 10.589844 1.921875"/></clipPath></defs><g clip-path="url(#a)"><path fill="#e5e7e6" d="M 52.144531 41.824219 L 52.144531 32.601562 C 52.144531 26.472656 50.582031 20.394531 47.628906 15.019531 L 41.820312 4.453125 C 40.964844 2.898438 39.328125 1.929688 37.546875 1.929688 C 37.546875 1.929688 37.542969 1.929688 37.539062 1.929688 C 35.753906 1.933594 34.117188 2.90625 33.265625 4.472656 L 27.488281 15.070312 C 24.578125 20.414062 23.039062 26.453125 23.039062 32.535156 L 23.039062 41.824219 C 16.007812 42.84375 10.589844 48.890625 10.589844 56.179688 L 10.589844 64.800781 C 10.589844 69.378906 14.328125 73.105469 18.921875 73.105469 C 23.503906 73.105469 27.230469 69.394531 27.25 64.828125 C 27.25 64.820312 27.25 64.808594 27.25 64.800781 L 27.25 51.820312 L 35.757812 66.769531 C 35.808594 66.855469 35.863281 66.9375 35.921875 67.015625 C 35.925781 67.019531 35.933594 67.027344 35.9375 67.03125 C 36.011719 67.125 36.09375 67.210938 36.179688 67.285156 C 36.199219 67.304688 36.222656 67.324219 36.246094 67.34375 C 36.34375 67.425781 36.445312 67.5 36.554688 67.5625 C 36.558594 67.5625 36.558594 67.5625 36.558594 67.5625 C 36.585938 67.578125 36.613281 67.589844 36.636719 67.601562 C 36.691406 67.628906 36.746094 67.65625 36.800781 67.679688 C 36.859375 67.707031 36.925781 67.722656 36.984375 67.742188 C 37.007812 67.75 37.03125 67.761719 37.054688 67.765625 C 37.140625 67.789062 37.226562 67.804688 37.316406 67.820312 C 37.410156 67.832031 37.5 67.835938 37.585938 67.835938 C 37.585938 67.835938 37.589844 67.835938 37.589844 67.835938 C 37.769531 67.835938 37.949219 67.8125 38.128906 67.765625 C 38.140625 67.761719 38.152344 67.757812 38.164062 67.753906 C 38.238281 67.734375 38.3125 67.710938 38.382812 67.679688 C 38.460938 67.648438 38.535156 67.613281 38.605469 67.574219 C 38.613281 67.566406 38.621094 67.566406 38.628906 67.5625 C 38.738281 67.5 38.839844 67.425781 38.9375 67.34375 C 38.960938 67.324219 38.984375 67.304688 39.007812 67.285156 C 39.089844 67.207031 39.171875 67.125 39.242188 67.03125 C 39.25 67.027344 39.257812 67.019531 39.261719 67.011719 C 39.320312 66.9375 39.375 66.851562 39.425781 66.769531 L 47.929688 51.695312 L 47.929688 64.804688 C 47.929688 69.386719 51.664062 73.113281 56.257812 73.113281 C 60.851562 73.113281 64.589844 69.386719 64.589844 64.804688 L 64.589844 56.1875 C 64.589844 48.890625 59.171875 42.84375 52.144531 41.824219 Z M 23.039062 62.699219 L 23.039062 64.800781 C 23.039062 67.066406 21.191406 68.90625 18.921875 68.90625 C 16.648438 68.90625 14.800781 67.066406 14.800781 64.800781 L 14.800781 56.183594 C 14.800781 51.214844 18.34375 47.058594 23.039062 46.085938 Z M 37.585938 61.464844 L 28.484375 45.480469 C 32.308594 44.578125 35.550781 42.164062 37.539062 38.910156 C 39.527344 42.167969 42.773438 44.582031 46.601562 45.480469 Z M 47.933594 41.472656 C 43.214844 40.539062 39.644531 36.386719 39.644531 31.414062 L 39.644531 26.074219 C 39.644531 24.914062 38.703125 23.972656 37.539062 23.972656 C 36.375 23.972656 35.433594 24.914062 35.433594 26.074219 L 35.433594 31.414062 C 35.433594 36.347656 31.917969 40.480469 27.253906 41.453125 L 27.253906 32.535156 C 27.253906 27.152344 28.617188 21.808594 31.195312 17.078125 L 36.972656 6.476562 C 37.132812 6.179688 37.402344 6.136719 37.550781 6.136719 C 37.695312 6.136719 37.964844 6.179688 38.128906 6.476562 L 43.9375 17.042969 C 46.554688 21.800781 47.933594 27.179688 47.933594 32.605469 Z M 60.378906 62.699219 L 60.378906 64.800781 C 60.378906 67.066406 58.53125 68.90625 56.261719 68.90625 C 53.992188 68.90625 52.144531 67.066406 52.144531 64.800781 L 52.144531 46.085938 C 56.839844 47.058594 60.378906 51.214844 60.378906 56.179688 Z M 60.378906 62.699219"/></g></svg>
