<svg xmlns="http://www.w3.org/2000/svg" width="375" viewBox="0 0 375 375" height="375" version="1.0"><defs><clipPath id="a"><path d="M 146.390625 107.851562 L 228.890625 107.851562 L 228.890625 216.558594 L 146.390625 216.558594 Z M 146.390625 107.851562"/></clipPath></defs><g clip-path="url(#a)"><path fill="#FFF" d="M 209.875 168.75 L 209.875 154.675781 C 209.875 145.324219 207.488281 136.042969 202.976562 127.839844 L 194.105469 111.714844 C 192.796875 109.339844 190.296875 107.863281 187.578125 107.863281 C 187.574219 107.863281 187.566406 107.863281 187.5625 107.863281 C 184.835938 107.867188 182.335938 109.351562 181.035156 111.738281 L 172.210938 127.917969 C 167.761719 136.078125 165.410156 145.292969 165.410156 154.578125 L 165.410156 168.753906 C 154.667969 170.308594 146.390625 179.542969 146.390625 190.667969 L 146.390625 203.820312 C 146.390625 210.8125 152.101562 216.5 159.117188 216.5 C 166.117188 216.5 171.816406 210.835938 171.84375 203.867188 C 171.84375 203.851562 171.847656 203.835938 171.847656 203.820312 L 171.847656 184.011719 L 184.84375 206.828125 C 184.917969 206.960938 185.003906 207.082031 185.09375 207.203125 C 185.101562 207.210938 185.109375 207.222656 185.117188 207.230469 C 185.230469 207.371094 185.355469 207.5 185.484375 207.617188 C 185.515625 207.644531 185.550781 207.675781 185.585938 207.703125 C 185.734375 207.828125 185.894531 207.945312 186.0625 208.039062 C 186.0625 208.039062 186.0625 208.039062 186.066406 208.039062 C 186.105469 208.0625 186.148438 208.078125 186.1875 208.097656 C 186.269531 208.140625 186.351562 208.183594 186.433594 208.21875 C 186.527344 208.257812 186.625 208.285156 186.71875 208.316406 C 186.753906 208.324219 186.785156 208.339844 186.820312 208.347656 C 186.953125 208.382812 187.089844 208.410156 187.222656 208.429688 C 187.222656 208.429688 187.226562 208.429688 187.226562 208.429688 C 187.363281 208.445312 187.5 208.457031 187.636719 208.457031 C 187.636719 208.457031 187.640625 208.457031 187.640625 208.457031 C 187.914062 208.457031 188.191406 208.417969 188.464844 208.347656 C 188.480469 208.34375 188.5 208.335938 188.519531 208.332031 C 188.632812 208.296875 188.742188 208.265625 188.855469 208.21875 C 188.972656 208.171875 189.082031 208.117188 189.195312 208.054688 C 189.207031 208.046875 189.214844 208.042969 189.226562 208.039062 C 189.394531 207.941406 189.550781 207.828125 189.703125 207.703125 C 189.734375 207.671875 189.769531 207.640625 189.804688 207.613281 C 189.933594 207.496094 190.054688 207.371094 190.164062 207.230469 C 190.175781 207.21875 190.1875 207.210938 190.195312 207.199219 C 190.285156 207.082031 190.367188 206.957031 190.445312 206.824219 L 203.4375 183.824219 L 203.4375 203.828125 C 203.4375 210.820312 209.144531 216.507812 216.164062 216.507812 C 223.179688 216.507812 228.890625 210.820312 228.890625 203.828125 L 228.890625 190.675781 C 228.890625 179.542969 220.617188 170.308594 209.875 168.75 Z M 165.410156 200.617188 L 165.410156 203.824219 C 165.410156 207.277344 162.585938 210.089844 159.117188 210.089844 C 155.648438 210.089844 152.828125 207.28125 152.828125 203.824219 L 152.828125 190.667969 C 152.828125 183.089844 158.234375 176.742188 165.410156 175.261719 Z M 187.632812 198.730469 L 173.730469 174.332031 C 179.570312 172.953125 184.523438 169.273438 187.5625 164.304688 C 190.601562 169.277344 195.5625 172.960938 201.410156 174.332031 Z M 203.441406 168.214844 C 196.234375 166.792969 190.78125 160.453125 190.78125 152.863281 L 190.78125 144.714844 C 190.78125 142.941406 189.339844 141.507812 187.5625 141.507812 C 185.785156 141.507812 184.34375 142.941406 184.34375 144.714844 L 184.34375 152.863281 C 184.34375 160.398438 178.976562 166.699219 171.847656 168.183594 L 171.847656 154.578125 C 171.847656 146.359375 173.929688 138.203125 177.867188 130.984375 L 186.695312 114.804688 C 186.941406 114.347656 187.355469 114.28125 187.578125 114.28125 C 187.578125 114.28125 187.582031 114.28125 187.582031 114.28125 C 187.804688 114.28125 188.214844 114.347656 188.464844 114.800781 L 197.339844 130.929688 C 201.335938 138.1875 203.445312 146.398438 203.445312 154.679688 L 203.445312 168.214844 Z M 222.457031 200.617188 L 222.457031 203.824219 C 222.457031 207.277344 219.636719 210.089844 216.167969 210.089844 C 212.699219 210.089844 209.878906 207.28125 209.878906 203.824219 L 209.878906 175.257812 C 217.050781 176.742188 222.457031 183.085938 222.457031 190.667969 Z M 222.457031 200.617188"/></g></svg>